<svg width="22" height="22" viewBox="0 0 22 22" fill="none" xmlns="http://www.w3.org/2000/svg">
<path d="M11.2204 8.62305C9.81266 8.62305 8.62305 9.81266 8.62305 11.2204C8.62305 12.6282 9.81266 13.8179 11.2204 13.8179C12.6282 13.8179 13.8179 12.6282 13.8179 11.2204C13.8179 9.81266 12.6282 8.62305 11.2204 8.62305Z" fill="#AEAEAE"/>
<path d="M18.1469 5.1599H15.908L13.5642 2.81618C13.484 2.73562 13.3886 2.67174 13.2835 2.6282C13.1785 2.58466 13.0658 2.56234 12.9521 2.5625H9.48891C9.37519 2.56234 9.26256 2.58466 9.15751 2.6282C9.05246 2.67174 8.95705 2.73562 8.87679 2.81618L6.53306 5.1599H4.2941C3.33912 5.1599 2.5625 5.93653 2.5625 6.89151V16.4153C2.5625 17.3703 3.33912 18.1469 4.2941 18.1469H18.1469C19.1019 18.1469 19.8785 17.3703 19.8785 16.4153V6.89151C19.8785 5.93653 19.1019 5.1599 18.1469 5.1599ZM11.2205 15.5495C8.87419 15.5495 6.8915 13.5668 6.8915 11.2205C6.8915 8.87419 8.87419 6.89151 11.2205 6.89151C13.5668 6.89151 15.5495 8.87419 15.5495 11.2205C15.5495 13.5668 13.5668 15.5495 11.2205 15.5495Z" fill="#AEAEAE"/>
</svg>
