<svg width="80" height="81" viewBox="0 0 80 81" fill="none" xmlns="http://www.w3.org/2000/svg">
<path d="M20.9526 40.4998L35.2384 55.7379L59.0479 25.2617" fill="#3DB4DA"/>
<path fill-rule="evenodd" clip-rule="evenodd" d="M25.185 18.3281C29.5703 15.398 34.726 13.834 40.0002 13.834C43.5021 13.834 46.9697 14.5237 50.2051 15.8639C53.4404 17.204 56.3801 19.1682 58.8563 21.6445C61.3326 24.1207 63.2968 27.0604 64.6369 30.2958C65.9771 33.5311 66.6668 36.9987 66.6668 40.5006C66.6668 45.7748 65.1028 50.9305 62.1727 55.3158C59.2425 59.7012 55.0778 63.1191 50.2051 65.1374C45.3324 67.1558 39.9706 67.6839 34.7978 66.6549C29.6249 65.626 24.8734 63.0862 21.144 59.3568C17.4146 55.6274 14.8748 50.8759 13.8459 45.7031C12.817 40.5302 13.3451 35.1684 15.3634 30.2958C17.3817 25.4231 20.7997 21.2583 25.185 18.3281ZM39.8535 19.1678C39.9023 19.1675 39.9512 19.1673 40.0001 19.1673C40.0431 19.1673 40.0861 19.1674 40.1291 19.1677C40.0373 19.1671 39.9454 19.1672 39.8535 19.1678ZM54.6509 24.9936C54.9583 25.2842 55.2571 25.5838 55.5469 25.892C55.257 25.5835 54.9582 25.2839 54.6509 24.9936ZM61.3298 40.1051C61.3322 40.2367 61.3334 40.3685 61.3334 40.5006C61.3334 40.6361 61.3322 40.7712 61.3296 40.906C61.3322 40.771 61.3335 40.6359 61.3335 40.5006C61.3335 40.3687 61.3323 40.2369 61.3298 40.1051ZM55.5728 55.0816C55.257 55.4188 54.9304 55.7456 54.5935 56.0617C54.7597 55.9058 54.9235 55.7471 55.0851 55.5856C55.2507 55.42 55.4132 55.252 55.5728 55.0816ZM40.1354 61.8335C40.0903 61.8338 40.0452 61.834 40.0001 61.834C39.9594 61.834 39.9186 61.8339 39.878 61.8336C39.9187 61.8339 39.9594 61.834 40.0002 61.834C40.0453 61.834 40.0903 61.8338 40.1354 61.8335Z" fill="#3DB4DA"/>
<path d="M30 40.9768L37.5 48.1197L50 33.834" stroke="white" stroke-width="4" stroke-linecap="round" stroke-linejoin="round"/>
</svg>
