<svg xmlns="http://www.w3.org/2000/svg" width="24" height="24" fill="none" viewBox="0 0 24 24">
    <path fill="#AEAEAE" d="M15.54 11.29L9.88 5.64c-.093-.094-.204-.169-.325-.22-.122-.05-.253-.076-.385-.076s-.263.026-.385.077c-.121.05-.232.125-.325.219-.186.187-.29.44-.29.705 0 .264.104.517.29.705l4.95 5L8.46 17c-.186.187-.29.44-.29.704 0 .265.104.518.29.706.093.094.203.17.325.22.122.052.253.079.385.08.132-.001.263-.028.385-.08.122-.05.232-.126.325-.22l5.66-5.65c.102-.094.183-.208.238-.334.055-.127.084-.263.084-.402 0-.138-.029-.274-.084-.4-.056-.127-.136-.24-.238-.335z"/>
</svg>
