<svg width="17" height="16" viewBox="0 0 17 16" fill="none" xmlns="http://www.w3.org/2000/svg">
<path fill-rule="evenodd" clip-rule="evenodd" d="M8.49968 1.3335C7.18114 1.3335 5.8922 1.72449 4.79588 2.45703C3.69955 3.18957 2.84506 4.23077 2.34048 5.44894C1.8359 6.66711 1.70387 8.00756 1.96111 9.30077C2.21834 10.594 2.85328 11.7819 3.78563 12.7142C4.71798 13.6466 5.90587 14.2815 7.19908 14.5387C8.49228 14.796 9.83273 14.6639 11.0509 14.1594C12.2691 13.6548 13.3103 12.8003 14.0428 11.704C14.7754 10.6076 15.1663 9.31871 15.1663 8.00016C15.1663 7.12468 14.9939 6.25778 14.6589 5.44894C14.3238 4.6401 13.8328 3.90517 13.2137 3.28612C12.5947 2.66706 11.8597 2.176 11.0509 1.84097C10.2421 1.50593 9.37516 1.3335 8.49968 1.3335ZM8.49967 2.66683L8.46285 2.66695C8.48516 2.6668 8.50746 2.66679 8.52976 2.66691L8.49967 2.66683ZM8.49969 4.6665C8.32287 4.6665 8.15331 4.73674 8.02828 4.86177C7.90326 4.98679 7.83302 5.15636 7.83302 5.33317V7.99984C7.83302 8.17665 7.90326 8.34622 8.02828 8.47124C8.15331 8.59627 8.32287 8.6665 8.49969 8.6665C8.6765 8.6665 8.84607 8.59627 8.97109 8.47124C9.09611 8.34622 9.16635 8.17665 9.16635 7.99984V5.33317C9.16635 5.15636 9.09611 4.98679 8.97109 4.86177C8.84607 4.73674 8.6765 4.6665 8.49969 4.6665ZM9.11302 10.4132C9.09843 10.3707 9.07825 10.3303 9.05302 10.2932L8.97302 10.1932C8.87927 10.1007 8.76022 10.038 8.63089 10.0131C8.50157 9.98817 8.36776 10.0021 8.24635 10.0532C8.16556 10.0869 8.09115 10.1343 8.02635 10.1932C7.96456 10.2555 7.91568 10.3293 7.8825 10.4106C7.84933 10.4918 7.83251 10.5788 7.83302 10.6665C7.83407 10.7536 7.85219 10.8397 7.88635 10.9198C7.91629 11.0026 7.96406 11.0777 8.02628 11.1399C8.08849 11.2021 8.16362 11.2499 8.24635 11.2798C8.32615 11.3151 8.41244 11.3333 8.49969 11.3333C8.58693 11.3333 8.67322 11.3151 8.75302 11.2798C8.83575 11.2499 8.91088 11.2021 8.9731 11.1399C9.03531 11.0777 9.08308 11.0026 9.11302 10.9198C9.14718 10.8397 9.1653 10.7536 9.16635 10.6665C9.16962 10.6221 9.16962 10.5776 9.16635 10.5332C9.15487 10.4907 9.13688 10.4502 9.11302 10.4132Z" fill="white"/>
</svg>
