<svg width="24" height="24" viewBox="0 0 24 24" fill="none" xmlns="http://www.w3.org/2000/svg">
<circle cx="12" cy="12" r="12" fill="#333333"/>
<path d="M12.5515 15.5147L16.7787 11.28C16.8488 11.2104 16.9045 11.1277 16.9425 11.0365C16.9804 10.9453 17 10.8475 17 10.7488C17 10.65 16.9804 10.5522 16.9425 10.461C16.9045 10.3699 16.8488 10.2871 16.7787 10.2176C16.6385 10.0782 16.4489 10 16.2512 10C16.0536 10 15.8639 10.0782 15.7238 10.2176L11.9829 13.921L8.27938 10.2176C8.1392 10.0782 7.94958 10 7.75192 10C7.55426 10 7.36463 10.0782 7.22445 10.2176C7.15376 10.2869 7.09752 10.3695 7.05899 10.4607C7.02046 10.5519 7.00041 10.6498 7 10.7488C7.00041 10.8478 7.02046 10.9457 7.05899 11.0369C7.09752 11.1281 7.15376 11.2107 7.22445 11.28L11.4517 15.5147C11.5217 15.5906 11.6068 15.6512 11.7014 15.6927C11.796 15.7341 11.8982 15.7555 12.0016 15.7555C12.1049 15.7555 12.2071 15.7341 12.3017 15.6927C12.3964 15.6512 12.4814 15.5906 12.5515 15.5147Z" fill="white"/>
</svg>
