<svg width="44" height="44" viewBox="0 0 44 44" fill="none" xmlns="http://www.w3.org/2000/svg">
<circle cx="22" cy="22" r="19.5" fill="#333333" stroke="#F2F2F2"/>
<path d="M19.7499 24.5321L27.2137 17.0508C27.5397 16.7268 27.9807 16.5449 28.4403 16.5449C28.8999 16.5449 29.3409 16.7268 29.6669 17.0508C29.8299 17.2126 29.9594 17.405 30.0477 17.617C30.136 17.829 30.1815 18.0564 30.1815 18.2861C30.1815 18.5158 30.136 18.7432 30.0477 18.9552C29.9594 19.1672 29.8299 19.3597 29.6669 19.5214L20.9678 28.2205C20.6437 28.5419 20.2063 28.7231 19.7499 28.7251C19.5209 28.7264 19.2939 28.6825 19.0819 28.5959C18.87 28.5093 18.6772 28.3818 18.5146 28.2205L14.426 24.1145C14.2439 23.9586 14.096 23.7666 13.9915 23.5508C13.8871 23.3349 13.8284 23.0998 13.8192 22.8602C13.8099 22.6206 13.8503 22.3817 13.9378 22.1584C14.0252 21.9351 14.1579 21.7324 14.3275 21.5628C14.497 21.3933 14.6998 21.2606 14.923 21.1731C15.1463 21.0857 15.3852 21.0453 15.6248 21.0545C15.8645 21.0638 16.0996 21.1225 16.3154 21.2269C16.5313 21.3313 16.7232 21.4793 16.8792 21.6614L19.7499 24.5321Z" fill="white"/>
</svg>
