<svg width="44" height="43" viewBox="0 0 44 43" fill="none" xmlns="http://www.w3.org/2000/svg">
<g clip-path="url(#clip0)">
<path d="M38.0269 42.271V18.4631C38.0794 10.935 32.9331 4.36555 25.6117 2.61434C25.6248 2.47295 25.6369 2.33221 25.6369 2.18622C25.6369 0.978943 24.658 0 23.4504 0C23.1108 0 22.7762 0.0790634 22.4724 0.230957L21.9928 0.472084L21.5135 0.232597C20.4335 -0.307724 19.1199 0.129913 18.5799 1.2099C18.428 1.51303 18.349 1.84733 18.349 2.18655C18.349 2.33221 18.3611 2.47065 18.3742 2.61139C11.106 4.28812 5.95734 10.7608 5.95898 18.2203V42.2714C5.95898 42.6739 6.28541 43 6.68794 43H15.4335C15.836 43 16.1624 42.6739 16.1624 42.2714V42.0279C16.1595 34.8971 14.2987 27.8904 10.7635 21.6975L10.3321 20.9426V20.6838C16.7067 19.1087 21.3721 13.6511 21.936 7.10882C21.9557 7.10882 21.9741 7.11833 21.9931 7.11833C22.0118 7.11833 22.0302 7.11013 22.0499 7.10882C22.6148 13.6507 27.2799 19.1078 33.6541 20.6838V20.9426L33.2224 21.6975C29.6872 27.8904 27.8264 34.8971 27.8235 42.0279V42.2714C27.8235 42.6739 28.1499 43 28.5524 43H37.2983C37.7005 43 38.0269 42.6736 38.0269 42.271ZM33.6538 41.5424H29.2811C29.3647 35.4342 30.8617 29.428 33.6538 23.9946V41.5424ZM14.7048 41.5424H10.3317V23.9946C13.1242 29.428 14.6212 35.4342 14.7048 41.5424ZM8.87416 18.2203V41.5424H7.41657V18.2203C7.41559 11.4294 12.1089 5.54002 18.7285 4.02502C18.93 4.50596 19.2088 4.95049 19.5536 5.34154C13.3631 6.51305 8.87941 11.9199 8.87416 18.2203ZM10.3317 19.1832V18.2203C10.337 12.3618 14.6881 7.41654 20.4981 6.6656C20.1304 12.5809 16.046 17.6098 10.3317 19.1832ZM22.8595 4.82549L22.2647 5.27133C22.2441 5.28314 22.2237 5.29626 22.2044 5.31004C22.2008 5.31365 22.1998 5.3189 22.1962 5.32317L21.9928 5.47834L21.7838 5.32185C21.7707 5.30775 21.7523 5.29987 21.7385 5.28741L21.1264 4.82845C20.297 4.20283 19.8085 3.2252 19.8066 2.18622C19.8046 1.93361 19.9358 1.69806 20.152 1.56683C20.2675 1.4963 20.4 1.45857 20.5352 1.45759C20.648 1.45792 20.7593 1.48482 20.8596 1.53632L21.6657 1.93919C21.8707 2.04187 22.1122 2.04187 22.3172 1.93919L23.1233 1.53632C23.4828 1.35556 23.9211 1.50056 24.1019 1.86012C24.1528 1.96149 24.1793 2.07304 24.1793 2.18622C24.1774 3.2252 23.6889 4.20283 22.8595 4.82845V4.82549ZM33.6538 19.1832C27.9406 17.6088 23.8568 12.5806 23.4878 6.6656C29.2978 7.41654 33.6489 12.3618 33.6538 18.2203V19.1832ZM36.5693 41.5424H35.1117V18.2203C35.1065 11.9199 30.6228 6.51305 24.4323 5.34154C24.7764 4.9518 25.0549 4.50858 25.2567 4.02961C31.9295 5.61777 36.6212 11.604 36.5693 18.4631V41.5424Z" fill="#333333"/>
<path d="M25.637 36.4411C26.0396 36.4411 26.366 36.1147 26.366 35.7122V32.797C26.366 32.3945 26.0396 32.0684 25.637 32.0684H18.3491C17.9465 32.0684 17.6201 32.3945 17.6201 32.797V35.7122C17.6201 36.1147 17.9465 36.4411 18.3491 36.4411H21.2643V41.5428H19.0777C18.6752 41.5428 18.3491 41.8689 18.3491 42.2715C18.3491 42.674 18.6752 43.0004 19.0777 43.0004H24.9084C25.3109 43.0004 25.637 42.674 25.637 42.2715C25.637 41.8689 25.3109 41.5428 24.9084 41.5428H22.7218V36.4411H25.637ZM19.0777 34.9835V33.5259H24.9084V34.9835H19.0777Z" fill="#333333"/>
</g>
<defs>
<clipPath id="clip0">
<rect width="43" height="43" fill="white" transform="translate(0.5)"/>
</clipPath>
</defs>
</svg>
