<svg width="44" height="44" viewBox="0 0 44 44" fill="none" xmlns="http://www.w3.org/2000/svg">
<path d="M42.659 40.1407H41.4984L40.0509 37.2456C39.9086 36.961 39.6178 36.7814 39.2997 36.7814C36.9727 36.7814 34.3055 36.5103 32.3388 36.074C29.1816 35.42 28.5018 35.1017 27.0383 35.1017C24.8752 35.1017 23.0196 35.896 21.9994 37.1073C20.9792 35.896 19.1236 35.1017 16.9605 35.1017C15.4987 35.1017 14.8299 35.4174 11.6598 36.074C11.3202 36.1494 10.958 36.2201 10.5778 36.2859V32.0784C10.5778 30.8885 9.74844 29.8894 8.63761 29.6269L4.6687 20.5422C5.20837 20.0716 5.53892 19.3813 5.53892 18.6413C5.53892 18.1564 5.40094 17.7034 5.16268 17.3187L11.9222 8.58138L13.0676 9.72715C13.0741 9.912 11.3947 15.1805 15.7611 19.5468C15.9252 19.7107 16.1401 19.7927 16.355 19.7927C16.5699 19.7927 16.7849 19.7107 16.9488 19.5468L19.1316 17.3639C21.2754 18.1274 23.6644 17.5812 25.2622 15.9835C26.8766 14.369 27.397 11.9706 26.643 9.85203L28.8256 7.66926C28.983 7.5117 29.0715 7.29805 29.0715 7.07533C29.0715 6.85261 28.983 6.63896 28.8255 6.4815C24.4671 2.12451 19.1787 3.79457 19.0059 3.78844L16.949 1.73164C15.3083 0.0897897 12.6514 0.0892017 11.0103 1.73139C9.47004 3.27162 9.37942 5.72037 10.7374 7.36801L3.85458 16.2647C3.59306 16.1724 3.31214 16.1218 3.01946 16.1218C1.63023 16.1218 0.5 17.252 0.5 18.6413C0.5 20.0305 1.63023 21.1607 3.01946 21.1607C3.0481 21.1607 3.07665 21.1598 3.10521 21.1588L6.89901 29.8426C6.09178 30.263 5.53892 31.1071 5.53892 32.0784V36.7699C5.25179 36.7774 4.97087 36.7814 4.6991 36.7814C4.38098 36.7814 4.09023 36.9611 3.94797 37.2456L2.50045 40.1407H1.33982C0.875988 40.1407 0.5 40.5167 0.5 40.9805C0.5 41.4442 0.875988 41.8203 1.33982 41.8203H7.89042C8.35426 41.8203 8.73024 41.4442 8.73024 40.9805C8.73024 40.5167 8.35426 40.1407 7.89042 40.1407H4.37829L5.22021 38.4568C5.60863 38.4506 6.01006 38.4376 6.41948 38.418C8.21955 38.3304 10.2647 38.1042 12.0234 37.7138C15.3438 37.0184 15.7731 36.7813 16.9605 36.7813C19.2367 36.7813 21.1596 37.9351 21.1596 39.3008C21.1596 39.7645 21.5356 40.1406 21.9994 40.1406C22.4632 40.1406 22.8392 39.7645 22.8392 39.3008C22.8392 37.9351 24.7622 36.7813 27.0383 36.7813C28.2261 36.7813 28.6533 37.0181 31.9751 37.7138C33.9371 38.1491 36.4439 38.4211 38.7786 38.457L39.6204 40.1407H25.3586C25.1359 40.1407 24.9222 40.2292 24.7648 40.3867L23.3311 41.8203H20.6675L19.2339 40.3867C19.0764 40.2292 18.8628 40.1407 18.64 40.1407H15.4487C14.9849 40.1407 14.6089 40.5167 14.6089 40.9805C14.6089 41.4442 14.9849 41.8203 15.4487 41.8203H18.2922L19.7258 43.254C19.8833 43.4114 20.097 43.5 20.3197 43.5H23.679C23.9017 43.5 24.1153 43.4114 24.2728 43.254L25.7065 41.8203H42.6589C43.1228 41.8203 43.4987 41.4442 43.4987 40.9805C43.4987 40.5167 43.1228 40.1407 42.659 40.1407ZM24.0745 14.7956C23.125 15.7451 21.7961 16.165 20.5119 15.9834L25.2624 11.2326C25.4439 12.5172 25.0239 13.8462 24.0745 14.7956ZM19.1441 5.4738C19.4096 5.47405 23.3623 4.1022 27.015 7.10431L16.3839 17.7363C13.3944 14.0996 14.7532 10.13 14.7529 9.86513L19.1441 5.4738ZM12.1982 2.91881C13.1825 1.93387 14.7762 1.93336 15.7611 2.91906L17.5423 4.70024L13.9793 8.26334L12.198 6.48141C11.2159 5.49933 11.2159 3.90123 12.1982 2.91881ZM3.01946 19.4811C2.55639 19.4811 2.17964 19.1043 2.17964 18.6413C2.17964 18.1782 2.55639 17.8014 3.01946 17.8014C3.48254 17.8014 3.85928 18.1782 3.85928 18.6413C3.85928 19.098 3.48867 19.4811 3.01946 19.4811ZM8.89821 36.5282C8.35056 36.5927 7.78553 36.6462 7.21857 36.687V32.0784C7.21857 31.6159 7.59439 31.2396 8.05662 31.2387C8.05738 31.2387 8.05805 31.2388 8.05881 31.2388C8.05956 31.2388 8.06032 31.2387 8.06099 31.2387C8.52289 31.2402 8.89821 31.6162 8.89821 32.0785V36.5282Z" fill="#333333"/>
</svg>
