<svg width="40" height="44" viewBox="0 0 40 44" fill="none" xmlns="http://www.w3.org/2000/svg">
<path d="M39.5556 32.9317C39.5556 30.8997 38.7725 28.9815 37.351 27.5302C36.1253 26.2793 34.5434 25.4965 32.8306 25.2774V25.0421C32.8306 23.5652 31.6289 22.3635 30.1519 22.3635H28.5894V21.5624C28.5894 20.6779 27.8699 19.9585 26.9855 19.9585H26.6574V17.8582C26.6574 16.7477 25.7788 15.839 24.6805 15.7894V12.3523C24.6805 11.5082 24.4627 10.6723 24.0499 9.93512L23.1924 8.40372C22.9923 8.04613 22.8866 7.64031 22.8866 7.22925V6.9189H23.1291C24.2169 6.9189 25.1021 6.03378 25.1021 4.94559V2.47232C25.1021 1.38479 24.2169 0.5 23.1291 0.5H14.4767C13.3892 0.5 12.5044 1.38479 12.5044 2.47232V4.94559C12.5044 5.90912 13.1986 6.7132 14.1129 6.88445C13.9823 7.20628 13.7809 7.49859 13.5191 7.73479L11.9759 9.12743C10.7811 10.2058 10.0961 11.7477 10.0961 13.3578V15.7871H8.75987C7.61755 15.7871 6.68848 16.7162 6.68848 17.8582V19.9585H6.37419C5.48973 19.9585 4.77029 20.6779 4.77029 21.5624V22.3635H3.19394C1.71732 22.3635 0.515625 23.5652 0.515625 25.0421V40.8217C0.515625 42.2983 1.71732 43.5 3.19394 43.5H30.1519C31.6289 43.5 32.8306 42.2983 32.8306 40.8217V40.5861C34.5434 40.3667 36.1253 39.5842 37.351 38.3333C38.7725 36.882 39.5556 34.9638 39.5556 32.9317ZM26.9064 22.3635H24.7251V21.6414H26.9064V22.3635ZM14.1874 2.47232C14.1874 2.31288 14.3169 2.18297 14.4767 2.18297H23.1291C23.2888 2.18297 23.4191 2.31288 23.4191 2.47232V4.94559C23.4191 5.10569 23.2888 5.23593 23.1291 5.23593H14.4767C14.3169 5.23593 14.1874 5.10569 14.1874 4.94559V2.47232ZM11.779 13.3578C11.779 12.2234 12.2616 11.1365 13.1034 10.377L14.6467 8.98406C15.2559 8.43423 15.6781 7.70855 15.8621 6.9189H21.2037V7.22925C21.2037 7.92737 21.3838 8.61794 21.724 9.22585L22.5815 10.7572C22.8538 11.2438 22.9975 11.7952 22.9975 12.3523V17.2103C22.9975 17.8306 22.6845 18.3995 22.1603 18.7325C21.9448 18.8693 21.7112 18.9792 21.4641 19.0599C21.2204 19.1403 20.9671 19.1895 20.7112 19.2065L15.1739 19.5782C15.0269 19.5881 14.8904 19.5107 14.8238 19.3807C14.6526 19.0461 14.5633 18.6754 14.5633 18.2991V16.6293C14.5633 16.6289 14.5633 16.6286 14.5633 16.6283C14.5633 16.628 14.5633 16.628 14.5633 16.6276V14.2111C14.5633 13.763 14.2251 13.3716 13.7776 13.3427C13.2875 13.3109 12.88 13.699 12.88 14.1822V15.7871H11.779V13.3578ZM12.88 18.2282C12.4165 18.1895 12.0274 17.8864 11.8634 17.4701H12.88V18.2282ZM8.37144 17.8582C8.37144 17.644 8.54565 17.4701 8.75954 17.4701H10.1292C10.3418 18.8535 11.5399 19.9165 12.9814 19.9165H13.2071L13.3252 20.1474C13.6776 20.8357 14.3822 21.2625 15.1469 21.2625C15.1935 21.2625 15.2401 21.2609 15.287 21.2576L20.8234 20.8859C21.2194 20.8593 21.6118 20.7829 21.9877 20.6592C22.3667 20.5359 22.7282 20.3653 23.0621 20.1533C23.9991 19.5585 24.5857 18.5727 24.669 17.4796C24.8432 17.5177 24.9741 17.6728 24.9741 17.8582V19.9588H24.646C23.7616 19.9588 23.0421 20.6782 23.0421 21.5624V22.3635H10.3172V21.5624C10.3172 20.6782 9.59775 19.9588 8.71329 19.9588H8.37144V17.8582ZM6.45325 21.6414H8.63422V22.3635H6.45325V21.6414ZM31.1473 40.8217C31.1473 41.3705 30.7008 41.817 30.1519 41.817H3.19394C2.64509 41.817 2.19859 41.3705 2.19859 40.8217V30.0582L4.1322 30.5579C4.20274 30.5762 4.2736 30.5851 4.34315 30.5851C4.7178 30.5851 5.05931 30.3332 5.1574 29.9539C5.27386 29.5038 5.00321 29.0448 4.55344 28.9287L2.19859 28.3202V25.0421C2.19859 24.493 2.64542 24.0465 3.19427 24.0465H30.1519C30.7008 24.0465 31.1476 24.493 31.1476 25.0421V25.2426C31.1027 25.2465 31.0581 25.2521 31.0134 25.257C30.9737 25.2613 30.934 25.2649 30.8947 25.2698C30.8327 25.2774 30.771 25.2865 30.7096 25.2954C30.6749 25.3007 30.6398 25.3049 30.6053 25.3105C30.5299 25.3226 30.4547 25.3367 30.3799 25.3508C30.3596 25.3548 30.3393 25.3581 30.3189 25.362C30.2235 25.381 30.1283 25.402 30.0338 25.4247C30.0158 25.4289 29.9981 25.4342 29.9804 25.4384C29.9046 25.4575 29.8288 25.4768 29.7537 25.4978C29.7225 25.5063 29.6917 25.5162 29.6605 25.5254C29.5995 25.5434 29.5381 25.5615 29.4774 25.5808C29.4423 25.5923 29.4079 25.6044 29.3728 25.6159C29.3167 25.6349 29.2606 25.654 29.2048 25.674C29.1687 25.6871 29.133 25.7012 29.0969 25.7147C29.0431 25.7353 28.9896 25.7557 28.9365 25.7773C28.9 25.7921 28.864 25.8075 28.8279 25.8229C28.7757 25.8449 28.7235 25.8672 28.672 25.8905C28.636 25.9066 28.6002 25.9233 28.5641 25.94C28.5133 25.9637 28.4627 25.9883 28.4122 26.0132C28.3768 26.0306 28.3417 26.0483 28.3066 26.0664C28.2564 26.0923 28.2065 26.1185 28.1567 26.1457C28.1225 26.1641 28.0884 26.1828 28.0546 26.2018C28.0044 26.2301 27.9552 26.2586 27.906 26.2878C27.8732 26.3072 27.8404 26.3265 27.8079 26.3465C27.7577 26.377 27.7085 26.4085 27.659 26.4403C27.6285 26.46 27.5976 26.4794 27.5671 26.4994C27.5159 26.5335 27.4654 26.5686 27.4149 26.6037C27.3877 26.6231 27.3598 26.6418 27.3326 26.6611C27.2781 26.7005 27.2243 26.7409 27.1705 26.7815C27.1485 26.7983 27.1262 26.8147 27.1042 26.8314C27.0389 26.8822 26.9746 26.9341 26.9107 26.9869C26.9012 26.9948 26.8916 27.002 26.8821 27.0102C26.7342 27.1339 26.5905 27.2631 26.4517 27.398C26.4373 27.4124 26.4228 27.4272 26.4084 27.4416C26.3553 27.4941 26.3021 27.5472 26.2506 27.6014C26.2303 27.6224 26.2109 27.644 26.1909 27.6653C26.1456 27.7139 26.1003 27.7628 26.0561 27.8126C26.0344 27.8372 26.0131 27.8622 25.9914 27.8874C25.9504 27.935 25.9097 27.9826 25.8697 28.0311C25.8474 28.0584 25.8254 28.0859 25.8035 28.1135C25.7654 28.161 25.7277 28.2089 25.6906 28.2575C25.6686 28.2864 25.6473 28.3152 25.6256 28.3444C25.5899 28.393 25.5545 28.4419 25.5197 28.4911C25.4984 28.5213 25.4774 28.5518 25.4567 28.5823C25.4229 28.6318 25.3898 28.6817 25.357 28.7322C25.3366 28.7634 25.3166 28.7945 25.2966 28.826C25.2648 28.8772 25.2333 28.9287 25.2024 28.9805C25.1834 29.0124 25.1644 29.0442 25.146 29.0763C25.1152 29.1295 25.0856 29.183 25.0564 29.2371C25.0391 29.2689 25.0213 29.3007 25.0043 29.3326C24.9751 29.3887 24.9469 29.4451 24.9187 29.5015C24.9032 29.5327 24.8872 29.5638 24.8721 29.5953C24.8435 29.6554 24.816 29.7164 24.7884 29.7777C24.7756 29.8063 24.7622 29.8348 24.7497 29.864C24.732 29.9047 24.7153 29.9464 24.6985 29.9874L19.2894 31.3862C18.9358 30.8846 18.3528 30.5556 17.6937 30.5556H17.0829C16.2912 30.5556 15.6089 31.0296 15.3034 31.7087L10.3733 30.4342C9.92319 30.3177 9.46423 30.5884 9.34776 31.0382C9.23163 31.4883 9.50195 31.9472 9.95206 32.0637L15.1319 33.4025V34.388C15.1319 35.4637 16.0071 36.339 17.0829 36.339H17.6937C18.7694 36.339 19.6447 35.4637 19.6447 34.388V33.0328L24.192 31.8567C24.1428 32.2116 24.1162 32.5702 24.1162 32.9317C24.1162 33.0518 24.1195 33.1712 24.1247 33.2897C24.1251 33.2979 24.1254 33.3061 24.1257 33.3143C24.1313 33.4278 24.1398 33.5406 24.15 33.6528C24.1513 33.6656 24.1523 33.6784 24.1536 33.6909C24.1641 33.8001 24.1776 33.9087 24.1927 34.0163C24.195 34.0314 24.1969 34.0465 24.1992 34.0616C24.215 34.1679 24.2327 34.2729 24.2527 34.3775C24.2556 34.3936 24.2589 34.4097 24.2619 34.4258C24.2825 34.5297 24.3049 34.6328 24.3295 34.7351C24.3334 34.7509 24.3373 34.7669 24.3413 34.7827C24.3665 34.8854 24.3938 34.9871 24.423 35.0878C24.4272 35.1022 24.4318 35.1167 24.4358 35.1308C24.4663 35.2331 24.4987 35.3345 24.5332 35.4349C24.5371 35.4464 24.5411 35.4578 24.5453 35.4693C24.5811 35.5723 24.6188 35.6747 24.6592 35.7757C24.6618 35.7826 24.6647 35.7895 24.6677 35.7964C24.71 35.9017 24.7543 36.006 24.8009 36.109C24.8481 36.2137 24.898 36.3167 24.9498 36.4187C24.9521 36.423 24.9544 36.4276 24.9564 36.4319C25.0066 36.53 25.0587 36.6264 25.1129 36.7219C25.1178 36.7307 25.1224 36.7393 25.1273 36.7478C25.1801 36.8403 25.2352 36.9315 25.2917 37.0217C25.2986 37.0325 25.3051 37.0434 25.312 37.0542C25.3678 37.1424 25.4258 37.2294 25.4852 37.3153C25.4934 37.3268 25.5013 37.3383 25.5092 37.3498C25.5689 37.4351 25.6299 37.5187 25.6929 37.6011C25.7018 37.6126 25.7103 37.6237 25.7188 37.6349C25.7825 37.7175 25.8474 37.7986 25.9143 37.8783C25.9225 37.8885 25.9311 37.8983 25.9396 37.9085C26.0078 37.9889 26.0774 38.0682 26.1486 38.1457C26.1558 38.1535 26.163 38.1614 26.1702 38.1693C26.2437 38.2487 26.3185 38.3268 26.395 38.4029C26.3995 38.4075 26.4045 38.4121 26.4091 38.4166C26.5708 38.5767 26.7397 38.7299 26.9149 38.8753C26.9166 38.8766 26.9182 38.8779 26.9199 38.8792C27.0051 38.9501 27.0924 39.019 27.181 39.0859C27.1876 39.0908 27.1938 39.0957 27.2 39.1007C27.2856 39.1653 27.3729 39.2276 27.4612 39.2886C27.471 39.2952 27.4802 39.3021 27.49 39.3087C27.577 39.368 27.6649 39.4254 27.7544 39.4815C27.7659 39.4884 27.7771 39.4957 27.7886 39.5029C27.8775 39.5577 27.9674 39.6108 28.0586 39.6623C28.0707 39.6692 28.0832 39.6761 28.0956 39.683C28.1868 39.7338 28.2794 39.7827 28.3728 39.8299C28.3853 39.8362 28.3975 39.8421 28.4096 39.8483C28.5044 39.8952 28.6002 39.9408 28.697 39.9841C28.7078 39.9887 28.719 39.9937 28.7298 39.9982C28.8289 40.0422 28.9286 40.0842 29.03 40.1236C29.0378 40.1268 29.046 40.1298 29.0539 40.1328C29.1586 40.1734 29.2642 40.2121 29.3711 40.2482C29.3738 40.2489 29.3764 40.2499 29.3793 40.2509C29.4886 40.2876 29.5988 40.322 29.71 40.3539C29.7127 40.3545 29.7153 40.3555 29.7179 40.3562C29.8265 40.387 29.9361 40.4155 30.0463 40.4418C30.0555 40.4438 30.0647 40.4464 30.0742 40.4487C30.1805 40.4733 30.2874 40.4959 30.3954 40.5163L30.4357 40.5241C30.5414 40.5435 30.6476 40.5605 30.7546 40.5756C30.7703 40.5779 30.7864 40.5802 30.8025 40.5822C30.9081 40.5966 31.0144 40.6084 31.1214 40.6183C31.1302 40.6193 31.1391 40.6206 31.1479 40.6212V40.8217H31.1473ZM17.9319 32.3868C17.9316 32.457 17.9394 32.5282 17.9578 32.5994C17.9588 32.6037 17.9604 32.6073 17.9614 32.6116V34.388C17.9614 34.5357 17.841 34.6561 17.6934 34.6561H17.0825C16.9349 34.6561 16.8145 34.5357 16.8145 34.388V32.5066C16.8145 32.3589 16.9349 32.2385 17.0825 32.2385H17.6934C17.798 32.2385 17.8876 32.2992 17.9319 32.3868ZM31.9707 38.9662C31.9674 38.9665 31.9642 38.9665 31.9609 38.9665C31.9195 38.9681 31.8779 38.9685 31.8359 38.9685C28.507 38.9685 25.7989 36.2606 25.7989 32.9317C25.7989 32.8478 25.8005 32.7638 25.8041 32.6801C25.8048 32.6657 25.8061 32.6516 25.8067 32.6371C25.8139 32.4843 25.8264 32.332 25.8451 32.1811C25.8474 32.1634 25.8504 32.1457 25.8527 32.128C25.8612 32.0634 25.87 31.9984 25.8809 31.9341C25.8878 31.8918 25.8966 31.8501 25.9045 31.8085C25.912 31.7688 25.9186 31.7287 25.9268 31.689C25.9412 31.6201 25.9573 31.5519 25.974 31.4837C25.9773 31.4712 25.9796 31.4584 25.9829 31.4459C26.0236 31.2849 26.0712 31.1251 26.125 30.9673C26.9632 28.5314 29.2583 26.895 31.8359 26.895C31.8779 26.895 31.9195 26.8957 31.9609 26.897C31.9642 26.897 31.9674 26.8973 31.9707 26.8973C35.2251 26.9679 37.8726 29.6747 37.8726 32.9317C37.8726 36.1888 35.2251 38.896 31.9707 38.9662Z" fill="#333333"/>
</svg>
