<svg width="44" height="44" viewBox="0 0 44 44" fill="none" xmlns="http://www.w3.org/2000/svg">
<path d="M16.2735 26.6848C16.2229 26.6848 16.1711 26.6796 16.1204 26.6692C16.0704 26.6601 16.0222 26.6442 15.9746 26.6256C15.9276 26.6061 15.8822 26.582 15.8401 26.5536C15.7971 26.5246 15.7574 26.4919 15.7214 26.4559C15.6855 26.4199 15.6528 26.3802 15.6238 26.3372C15.5958 26.2951 15.5717 26.2496 15.5522 26.2029C15.5326 26.1553 15.5177 26.1059 15.5076 26.0559C15.4973 26.0058 15.4927 25.9542 15.4927 25.9036C15.4927 25.8529 15.4973 25.8014 15.5076 25.7513C15.5177 25.7013 15.5326 25.6521 15.5522 25.6052C15.5717 25.5575 15.5958 25.5124 15.6238 25.47C15.6528 25.4272 15.6855 25.3873 15.7214 25.3513C15.7574 25.3156 15.7971 25.2826 15.8401 25.2545C15.8822 25.2265 15.9276 25.202 15.9746 25.1825C16.0222 25.163 16.0704 25.1474 16.1204 25.138C16.3742 25.0867 16.6435 25.17 16.8256 25.3513C16.8616 25.3873 16.8943 25.4272 16.9223 25.47C16.9504 25.5124 16.9748 25.5575 16.9943 25.6052C17.0139 25.6521 17.0285 25.7013 17.0389 25.7513C17.0489 25.8014 17.0544 25.8529 17.0544 25.9036C17.0544 26.1093 16.9708 26.3107 16.8256 26.4559C16.7897 26.4919 16.7497 26.5246 16.7067 26.5536C16.6646 26.5816 16.6194 26.6058 16.5719 26.6253C16.5249 26.6442 16.4758 26.6598 16.4258 26.6692C16.3757 26.6796 16.3242 26.6848 16.2735 26.6848Z" fill="#333333"/>
<path d="M25.2705 21.6239C24.918 21.6239 24.5813 21.6937 24.2739 21.8207V18.9082C24.2739 17.0252 22.7359 15.4932 20.8454 15.4932H8.37026C6.47975 15.4932 4.94141 17.0252 4.94141 18.9082V21.8207C4.63406 21.6937 4.29767 21.6239 3.94488 21.6239C2.50467 21.6239 1.33301 22.7908 1.33301 24.225V34.2518C1.33301 35.6851 2.50404 36.8513 3.9433 36.8513H4.00547V39.1039C4.00547 39.5483 4.3671 39.9084 4.81329 39.9084H9.01368C9.45988 39.9084 9.82151 39.5483 9.82151 39.1039V36.8513H19.3941V39.1039C19.3941 39.5483 19.7558 39.9084 20.202 39.9084H24.4024C24.8486 39.9084 25.2102 39.5483 25.2102 39.1039V36.8513H25.2724C26.7116 36.8513 27.8826 35.6851 27.8826 34.2518V24.225C27.8823 22.7908 26.7107 21.6239 25.2705 21.6239ZM6.55707 18.9082C6.55707 17.9123 7.37057 17.1022 8.37026 17.1022H20.8454C21.8451 17.1022 22.6586 17.9123 22.6586 18.9082V25.3023C22.2916 25.1285 21.8814 25.0311 21.4491 25.0311H18.9899C18.5437 25.0311 18.1821 25.3913 18.1821 25.8356C18.1821 26.2797 18.5437 26.6401 18.9899 26.6401H21.4491C22.1158 26.6401 22.6586 27.1803 22.6586 27.8447V31.2412H6.55707V27.8447C6.55707 27.1803 7.09983 26.6401 7.7666 26.6401H12.6987C13.1449 26.6401 13.5065 26.28 13.5065 25.8356C13.5065 25.3913 13.1449 25.0311 12.6987 25.0311H7.7666C7.33397 25.0311 6.92406 25.1285 6.55707 25.3023V18.9082ZM8.20586 38.2994H5.62112V36.8513H8.20586V38.2994ZM23.5945 38.2994H21.0095V36.8513H23.5945V38.2994ZM26.267 34.2518C26.267 34.798 25.8208 35.2423 25.2724 35.2423H3.9433C3.39486 35.2423 2.94866 34.798 2.94866 34.2518V24.225C2.94866 23.6779 3.39581 23.2326 3.94519 23.2326C4.49458 23.2326 4.94141 23.6779 4.94141 24.225V32.0457C4.94141 32.49 5.30304 32.8502 5.74924 32.8502H23.4664C23.9123 32.8502 24.2742 32.49 24.2742 32.0457V24.225C24.2742 23.6779 24.7211 23.2326 25.2708 23.2326C25.8202 23.2326 26.267 23.6779 26.267 24.225V34.2518Z" fill="#333333"/>
<path d="M32.9627 20.3156C32.7768 19.9833 32.3569 19.865 32.0244 20.0508L31.988 20.0714C31.6571 20.2599 31.5417 20.6808 31.7301 21.0116C31.8572 21.2348 32.0901 21.3599 32.3298 21.3599C32.4454 21.3599 32.5627 21.3308 32.6703 21.2694L32.6979 21.2539C33.0301 21.068 33.1487 20.6479 32.9627 20.3156Z" fill="#333333"/>
<path d="M42.8377 29.3976C42.707 29.231 42.507 29.1336 42.2952 29.1336H38.561L38.5609 24.0419C38.5609 23.7592 38.5328 23.4779 38.4797 23.2017L41.0073 21.4999C41.6125 21.0925 42.0704 20.4861 42.2965 19.7926C42.7818 18.305 42.1428 16.6704 40.7774 15.906C40.7689 15.9013 40.7603 15.8967 40.7515 15.8922C39.643 15.3323 38.3358 15.4587 37.362 16.1511L37.3619 14.2591C37.3619 13.6764 37.1644 13.1025 36.8057 12.6431C36.0365 11.6578 34.6683 11.3519 33.5524 11.9158C33.5437 11.9202 33.535 11.9248 33.5264 11.9297C32.4357 12.5405 31.9256 13.8464 32.3134 15.0348C32.4941 15.5888 32.86 16.0731 33.3435 16.3985L36.0419 18.2147C36.0036 18.4158 35.9832 18.6206 35.9833 18.8264L35.9834 19.98C35.5442 19.7741 35.0695 19.6383 34.572 19.5826C34.1942 19.5402 33.8525 19.8126 33.8103 20.191C33.7679 20.5695 34.0403 20.9105 34.4186 20.9528C35.0883 21.0278 35.6995 21.3097 36.1829 21.7585C36.1934 21.7691 36.2045 21.7789 36.2157 21.7887C36.3254 21.8935 36.4283 22.0068 36.5234 22.1287C36.9481 22.6726 37.182 23.3521 37.182 24.0421L37.1822 29.1336H36.3283L32.4814 26.5445C31.909 26.1593 31.4758 25.5858 31.2617 24.9298C31.0205 24.1909 31.0642 23.3936 31.3846 22.6849C31.5415 22.338 31.3874 21.9296 31.0405 21.7728C30.6935 21.6159 30.2851 21.77 30.1283 22.1169C29.6658 23.1399 29.6028 24.2907 29.951 25.3577C30.2601 26.3046 30.8854 27.1324 31.7115 27.6884L33.8589 29.1336H29.1967C28.985 29.1336 28.7849 29.231 28.6543 29.3975C28.5236 29.5641 28.4768 29.7815 28.5271 29.9872L30.8259 39.3629C30.9016 39.6713 31.1779 39.8882 31.4955 39.8882H39.9965C40.3139 39.8882 40.5904 39.6714 40.666 39.3629L42.9648 29.9872C43.0152 29.7816 42.9683 29.5641 42.8377 29.3976ZM34.1135 15.2546C33.8838 15.1001 33.71 14.87 33.6242 14.6069C33.4416 14.0474 33.6782 13.4329 34.1874 13.1398C34.7149 12.881 35.3568 13.0277 35.7191 13.4917C35.8894 13.7099 35.9832 13.9825 35.9832 14.2592L35.9833 16.5132L34.1135 15.2546ZM37.7661 17.6517C38.322 16.9396 39.3085 16.7159 40.1168 17.1163C40.9005 17.5631 41.2659 18.5063 40.9858 19.3651C40.8544 19.7678 40.5886 20.1197 40.2373 20.3562L37.9961 21.8652C37.8831 21.6609 37.7546 21.4648 37.6103 21.2799C37.5315 21.179 37.4482 21.083 37.3624 20.9901L37.3622 18.826C37.3621 18.4026 37.5056 17.9856 37.7661 17.6517ZM40.8417 32.8564H33.2181C32.8375 32.8564 32.5287 33.165 32.5287 33.5457C32.5287 33.9265 32.8375 34.2351 33.2181 34.2351H40.5036L39.4556 38.5094H32.0363L30.0756 30.5124H36.1179H37.8716H41.4164L40.8417 32.8564Z" fill="#333333"/>
</svg>
