<svg width="44" height="43" viewBox="0 0 44 43" fill="none" xmlns="http://www.w3.org/2000/svg">
<g clip-path="url(#clip0)">
<path d="M20.7403 15.769L9.12426 12.6566C8.70368 12.5441 8.26637 12.7715 8.11776 13.1809L7.71588 14.2851C7.55743 14.7211 7.78215 15.2031 8.21815 15.3615C8.65382 15.52 9.13574 15.2953 9.2942 14.8593L9.43297 14.478L19.5623 17.1924L18.7667 21.6991H6.80583L6.99742 21.1728C7.15588 20.7372 6.93115 20.2552 6.49548 20.0968C6.05949 19.938 5.57756 20.1631 5.4191 20.5987L4.81776 22.2518C4.81448 22.2607 4.81186 22.2696 4.80891 22.2784C4.80727 22.2837 4.8053 22.2886 4.80366 22.2938C4.17607 24.0559 4.3296 25.9855 5.23933 27.7331C6.12182 29.4282 7.65519 30.7848 9.43625 31.4803L8.06888 36.583L3.73089 38.1308C3.24502 38.2758 2.8648 38.6659 2.73324 39.157C2.52394 39.9384 2.98913 40.7448 3.77091 40.9541L11.2311 42.951C11.3558 42.9845 11.483 43.0006 11.6093 43.0006C11.9532 43.0006 12.2907 42.8795 12.5588 42.6519C12.857 42.3983 13.0384 42.0436 13.0702 41.6536C13.1017 41.2635 12.9793 40.8842 12.7261 40.5864L9.69903 37.0249C9.69673 37.0219 9.69378 37.0196 9.69148 37.0167L11.0589 31.9143C11.4542 31.9747 11.8547 32.0052 12.2556 32.0052C13.771 32.0052 15.2922 31.58 16.5667 30.7681C18.2415 29.7012 19.3444 28.0904 19.6722 26.2322L21.3499 16.7263C21.4257 16.2975 21.1609 15.8818 20.7403 15.769ZM11.0014 41.151L4.86664 39.5087L8.50291 38.2112L11.0014 41.151ZM15.6642 29.3515C14.206 30.2802 12.339 30.5676 10.6698 30.1205C9.00058 29.6733 7.52757 28.4906 6.72906 26.9573C6.12772 25.8022 5.95811 24.5516 6.2327 23.3787H18.4701L18.0184 25.9403C17.773 27.329 16.9371 28.5405 15.6642 29.3515Z" fill="#333333"/>
<path d="M41.2638 39.157C41.1326 38.6659 40.7521 38.2758 40.2662 38.1305L35.9282 36.5827L34.5608 31.48C36.3422 30.7845 37.8753 29.4279 38.7578 27.7328C39.6675 25.9855 39.821 24.0559 39.1934 22.2938C39.1918 22.2886 39.1898 22.2833 39.1882 22.2778C39.1849 22.2692 39.1826 22.2604 39.1793 22.2518L35.8793 13.1809C35.7304 12.7715 35.2934 12.5441 34.8728 12.6566L23.2567 15.7693C22.8362 15.8818 22.5714 16.2975 22.6472 16.7263L24.3249 26.2319C24.653 28.0904 25.7559 29.7012 27.4307 30.7681C28.7052 31.5797 30.2265 32.0052 31.7415 32.0052C32.1423 32.0052 32.5429 31.9744 32.9386 31.9143L34.3056 37.0167C34.3033 37.0193 34.3007 37.0219 34.2984 37.0249L31.2713 40.586C31.0177 40.8842 30.8957 41.2632 30.9272 41.6536C30.9587 42.0436 31.1404 42.3979 31.4383 42.6515C31.7064 42.8795 32.0439 43.0006 32.3881 43.0006C32.5144 43.0006 32.6417 42.9842 32.7667 42.9507L40.2265 40.9541C41.0079 40.7445 41.4735 39.9384 41.2638 39.157ZM28.3329 29.3515C27.06 28.5405 26.2241 27.3293 25.979 25.9403L25.5269 23.3787H29.1527C29.6163 23.3787 29.9922 23.0028 29.9922 22.5389C29.9922 22.075 29.6163 21.6991 29.1527 21.6991H25.2304L24.4351 17.1924L34.5641 14.4784L37.1913 21.6991H35.8708C35.4069 21.6991 35.031 22.075 35.031 22.5389C35.031 23.0028 35.4069 23.3787 35.8708 23.3787H37.7644C38.039 24.5516 37.8694 25.8022 37.268 26.9573C36.4695 28.491 34.9965 29.6733 33.3273 30.1205C31.6585 30.5679 29.7911 30.2802 28.3329 29.3515ZM32.9956 41.151L35.4942 38.2112L39.1304 39.5087L32.9956 41.151Z" fill="#333333"/>
<path d="M22.9245 7.84312C22.9245 7.3776 22.5469 7 22.0814 7C21.6156 7 21.2383 7.3776 21.2383 7.84312V10.5828C21.2383 11.0483 21.6156 11.4259 22.0814 11.4259C22.5469 11.4259 22.9245 11.0483 22.9245 10.5828V7.84312Z" fill="#333333"/>
<path d="M18.6617 10.1911C18.8204 10.4525 19.0983 10.5969 19.3834 10.5969C19.5323 10.5969 19.6836 10.5572 19.8201 10.4742C20.218 10.2324 20.345 9.71374 20.1032 9.3158L19.0639 7.60462C18.8221 7.207 18.3037 7.08004 17.9055 7.32183C17.5075 7.56361 17.3809 8.08228 17.6227 8.48022L18.6617 10.1911Z" fill="#333333"/>
<path d="M24.5111 10.4743C24.6476 10.5573 24.7988 10.597 24.9477 10.597C25.2328 10.597 25.5107 10.4526 25.6695 10.1911L26.7085 8.4803C26.9503 8.08235 26.8236 7.56368 26.4257 7.3219C26.0274 7.08012 25.5091 7.20675 25.2673 7.60469L24.2283 9.31587C23.9862 9.71382 24.1131 10.2325 24.5111 10.4743Z" fill="#333333"/>
<path d="M7.12679 18.5354C7.20389 18.5574 7.28131 18.5679 7.35775 18.5679C7.72321 18.5679 8.05948 18.3271 8.16512 17.9584C8.29241 17.5125 8.03422 17.0477 7.58838 16.9201C7.14254 16.7931 6.67767 17.051 6.55005 17.4971V17.4974C6.42277 17.9436 6.68095 18.4082 7.12679 18.5354Z" fill="#333333"/>
<path d="M32.5111 21.6982H32.5104C32.0465 21.6982 31.6709 22.0742 31.6709 22.5381C31.6709 23.002 32.0472 23.3779 32.5111 23.3779C32.975 23.3779 33.3509 23.002 33.3509 22.5381C33.3509 22.0742 32.975 21.6982 32.5111 21.6982Z" fill="#333333"/>
</g>
<defs>
<clipPath id="clip0">
<rect width="43" height="43" fill="white" transform="translate(0.5)"/>
</clipPath>
</defs>
</svg>
