<svg width="44" height="44" viewBox="0 0 44 44" fill="none" xmlns="http://www.w3.org/2000/svg">
<path d="M41.0131 25.0234H36.4453V23.5117C36.4453 22.1224 35.3151 20.9922 33.9258 20.9922H29.5586C28.1693 20.9922 27.0391 22.1224 27.0391 23.5117V25.0234H25.0234V15.7852C25.0234 13.4697 23.1397 11.5859 20.8242 11.5859H18.6406V3.01953C18.6406 1.63026 17.5104 0.5 16.1211 0.5H9.40234C8.01307 0.5 6.88281 1.63026 6.88281 3.01953V11.5859H4.69922C2.38377 11.5859 0.5 13.4697 0.5 15.7852V22.084C0.5 22.5478 0.875998 22.9238 1.33984 22.9238C1.80369 22.9238 2.17969 22.5478 2.17969 22.084V15.7852C2.17969 14.3959 3.30995 13.2656 4.69922 13.2656H20.8242C22.2135 13.2656 23.3438 14.3959 23.3438 15.7852V25.0234H22.4713C21.1 25.0234 19.9844 26.1391 19.9844 27.5104V38.4609H4.69922C3.30995 38.4609 2.17969 37.3307 2.17969 35.9414V29.6426C2.17969 29.1787 1.80369 28.8027 1.33984 28.8027C0.875998 28.8027 0.5 29.1787 0.5 29.6426V35.9414C0.5 37.9694 1.94495 39.6659 3.85938 40.0561V40.9805C3.85938 42.3697 4.98964 43.5 6.37891 43.5C7.76818 43.5 8.89844 42.3697 8.89844 40.9805V40.1406H16.625V40.9805C16.625 42.3697 17.7553 43.5 19.1445 43.5C19.7845 43.5 20.3691 43.2597 20.814 42.8652C21.2542 43.2596 21.8351 43.5 22.4713 43.5H41.0131C42.3843 43.5 43.5 42.3843 43.5 41.0131V27.5104C43.5 26.1391 42.3843 25.0234 41.0131 25.0234ZM9.40234 2.17969H16.1211C16.5842 2.17969 16.9609 2.55644 16.9609 3.01953V3.85938H8.5625V3.01953C8.5625 2.55644 8.93925 2.17969 9.40234 2.17969ZM8.5625 11.5859V5.53906H16.9609V11.5859H8.5625ZM41.8203 27.5104V29.0072C40.6998 28.7076 39.8159 27.8237 39.5162 26.7031H41.0131C41.4582 26.7031 41.8203 27.0653 41.8203 27.5104ZM41.8203 37.7976C40.1562 38.0843 38.7744 39.2074 38.125 40.7169V27.8065C38.7744 29.316 40.1562 30.4393 41.8203 30.7258V37.7976ZM21.6641 30.7258C23.3282 30.4392 24.71 29.316 25.3594 27.8065V40.7169C24.71 39.2074 23.3282 38.0842 21.6641 37.7976V30.7258ZM27.0391 26.7031H36.4453V41.8203H27.0391V26.7031ZM28.7188 23.5117C28.7188 23.0486 29.0955 22.6719 29.5586 22.6719H33.9258C34.3889 22.6719 34.7656 23.0486 34.7656 23.5117V25.0234H28.7188V23.5117ZM22.4713 26.7031H23.9682C23.6685 27.8236 22.7847 28.7076 21.6641 29.0072V27.5104C21.6641 27.0653 22.0262 26.7031 22.4713 26.7031ZM7.21875 40.9805C7.21875 41.4436 6.842 41.8203 6.37891 41.8203C5.91582 41.8203 5.53906 41.4436 5.53906 40.9805V40.1406H7.21875V40.9805ZM19.1445 41.8203C18.6814 41.8203 18.3047 41.4436 18.3047 40.9805V40.1406H19.9844V40.9805C19.9844 41.4436 19.6076 41.8203 19.1445 41.8203ZM21.6641 41.0131V40.9805V39.5162C22.7846 39.8159 23.6685 40.6997 23.9682 41.8203H22.4713C22.0262 41.8203 21.6641 41.4582 21.6641 41.0131ZM41.0131 41.8203H39.5162C39.8159 40.6998 40.6997 39.8159 41.8203 39.5162V41.0131C41.8203 41.4582 41.4582 41.8203 41.0131 41.8203Z" fill="#333333"/>
</svg>
