<svg width="40" height="43" viewBox="0 0 40 43" fill="none" xmlns="http://www.w3.org/2000/svg">
<path d="M38.4011 20.1525H30.3153V7.98473C30.3153 7.52088 29.9392 7.14489 29.4754 7.14489H22.6478V7.10743C22.6478 3.18838 19.4578 0 15.5368 0C11.6157 0 8.42574 3.18838 8.42574 7.10743V7.14489H1.59814C1.1343 7.14489 0.758301 7.52088 0.758301 7.98473V42.1602C0.758301 42.624 1.1343 43 1.59814 43H38.4012C38.865 43 39.241 42.624 39.241 42.1602V20.9923C39.241 20.5285 38.865 20.1525 38.4011 20.1525ZM10.1053 7.10743C10.1053 4.11456 12.5419 1.67969 15.5367 1.67969C18.5315 1.67969 20.9681 4.11456 20.9681 7.10743V7.14489H10.1053V7.10743ZM18.0081 41.3203H6.76285V38.0552H18.0081V41.3203ZM37.5613 41.3203H19.6878V32.8553C19.6878 32.3914 19.3118 32.0154 18.8479 32.0154C18.3841 32.0154 18.0081 32.3914 18.0081 32.8553V36.3755H5.923C5.45916 36.3755 5.08316 36.7515 5.08316 37.2153V41.3203H2.43799V8.82457H8.42574V12.2949C7.36695 12.6473 6.60143 13.6471 6.60143 14.8223C6.60143 16.2907 7.79653 17.4854 9.26558 17.4854C10.7346 17.4854 11.9297 16.2907 11.9297 14.8223C11.9297 13.6471 11.1642 12.6473 10.1054 12.2949V8.82457H20.9682V12.2949C19.9094 12.6473 19.1439 13.6471 19.1439 14.8223C19.1439 16.2907 20.339 17.4854 21.8081 17.4854C23.2771 17.4854 24.4722 16.2907 24.4722 14.8223C24.4722 13.6471 23.7067 12.6473 22.6479 12.2949V8.82457H28.6357V20.1524H18.8479C18.3841 20.1524 18.0081 20.5284 18.0081 20.9922V25.262C18.0081 25.7258 18.3841 26.1018 18.8479 26.1018C19.3118 26.1018 19.6878 25.7258 19.6878 25.262V21.8322H37.5613V41.3203ZM9.2655 13.839C9.80829 13.839 10.25 14.2801 10.25 14.8224C10.25 15.3647 9.80837 15.8058 9.2655 15.8058C8.72262 15.8058 8.28103 15.3647 8.28103 14.8224C8.28103 14.2801 8.72271 13.839 9.2655 13.839ZM21.808 13.839C22.3508 13.839 22.7924 14.2801 22.7924 14.8224C22.7924 15.3647 22.3508 15.8058 21.808 15.8058C21.2652 15.8058 20.8235 15.3647 20.8235 14.8224C20.8235 14.2801 21.2652 13.839 21.808 13.839Z" fill="#333333"/>
</svg>
