<svg width="44" height="44" viewBox="0 0 44 44" fill="none" xmlns="http://www.w3.org/2000/svg">
<path d="M40.9805 38.4609H40.9428C42.489 37.2081 43.5 35.3808 43.5 33.4219C43.5 30.5847 41.7045 28.0398 39.0322 27.0893C39.0286 27.088 39.025 27.0868 39.0214 27.0855L31.8425 24.6413L34.4826 11.082H35.4375C37.7529 11.082 39.6367 9.19826 39.6367 6.88281V3.01953C39.6367 1.63026 38.5065 0.5 37.1172 0.5C35.7251 0.5 34.5977 1.62749 34.5977 3.01953V6.04297H30.3984C29.0092 6.04297 27.8789 7.17323 27.8789 8.5625C27.8789 9.58493 28.5022 10.4757 29.3884 10.8681L27.0304 23.0029L15.0702 18.9309C14.3674 18.6811 13.6388 18.5059 12.8981 18.4057L11.4286 12.7617H14.1836C15.0149 12.7617 15.7967 12.4379 16.3849 11.8498C16.973 11.2617 17.2969 10.4799 17.2969 9.64842C17.2969 8.12091 16.2029 6.82948 14.6954 6.5777C4.45734 4.8902 4.99434 4.91842 4.41451 4.91842C2.25603 4.91842 0.5 6.67789 0.5 8.84049C0.5 11.0027 2.25905 12.7617 4.42123 12.7617H6.20556L7.81235 18.9153C3.46767 20.4313 0.5 24.5561 0.5 29.2227C0.5 33.075 2.5163 36.5135 5.59701 38.4609H3.01953C1.62757 38.4609 0.5 39.5883 0.5 40.9805C0.5 42.3697 1.63026 43.5 3.01953 43.5H40.9805C42.3725 43.5 43.5 42.3725 43.5 40.9805C43.5 39.5912 42.3697 38.4609 40.9805 38.4609ZM30.3984 7.72266H35.4375C35.9013 7.72266 36.2773 7.34657 36.2773 6.88281V3.01953C36.2773 2.55602 36.6535 2.17969 37.1172 2.17969C37.5803 2.17969 37.957 2.55644 37.957 3.01953V6.88281C37.957 8.27208 36.8268 9.40234 35.4375 9.40234C34.4456 9.40234 31.4739 9.40234 30.4333 9.40234C30.4064 9.40016 30.3798 9.39932 30.3533 9.39974C29.9126 9.37665 29.5586 9.00737 29.5586 8.5625C29.5586 8.09941 29.9353 7.72266 30.3984 7.72266ZM31.0579 11.082H32.7714L30.2377 24.0949L28.6354 23.5493L31.0579 11.082ZM4.42123 11.082C3.18523 11.082 2.17969 10.0764 2.17969 8.84049C2.17969 7.60407 3.18221 6.59811 4.41451 6.59811C4.75801 6.59811 4.33825 6.56518 14.419 8.23437C15.1133 8.35044 15.6172 8.94505 15.6172 9.64842C15.6172 10.0312 15.468 10.3913 15.1972 10.662C14.9263 10.9329 14.5664 11.082 14.1836 11.082H4.42123ZM11.1373 18.3092C10.5643 18.3238 9.99536 18.3832 9.43619 18.4859L7.9416 12.7617H9.69293L11.1373 18.3092ZM2.17969 29.2227C2.17969 25.0358 5.00198 21.3638 9.04398 20.2929C10.7776 19.8312 12.7113 19.8738 14.5124 20.5152C14.5161 20.5166 14.5198 20.5178 14.5235 20.5191L38.4746 28.6737C40.476 29.3883 41.8203 31.2957 41.8203 33.4219C41.8203 36.0586 39.1797 38.3758 36.2798 38.377L10.2215 38.3847C5.63329 37.7915 2.17969 33.8615 2.17969 29.2227ZM40.9805 41.8203H3.01953C2.55644 41.8203 2.17969 41.4436 2.17969 40.9805C2.17969 40.5168 2.55585 40.1406 3.01953 40.1406C3.72198 40.1406 33.4271 40.1406 40.9805 40.1406C41.4436 40.1406 41.8203 40.5174 41.8203 40.9805C41.8203 41.444 41.4441 41.8203 40.9805 41.8203Z" fill="#333333"/>
</svg>
