<svg width="16" height="16" viewBox="0 0 16 16" fill="none" xmlns="http://www.w3.org/2000/svg">
<mask id="mask0" mask-type="alpha" maskUnits="userSpaceOnUse" x="1" y="1" width="14" height="14">
<path fill-rule="evenodd" clip-rule="evenodd" d="M7.99992 1.3324C4.31992 1.3324 1.33325 4.31906 1.33325 7.99906C1.33325 11.6791 4.31992 14.6657 7.99992 14.6657C11.6799 14.6657 14.6666 11.6791 14.6666 7.99906C14.6666 4.31906 11.6799 1.3324 7.99992 1.3324ZM7.99992 8.66573C7.63325 8.66573 7.33325 8.36573 7.33325 7.99906V5.3324C7.33325 4.96573 7.63325 4.66573 7.99992 4.66573C8.36659 4.66573 8.66659 4.96573 8.66659 5.3324V7.99906C8.66659 8.36573 8.36659 8.66573 7.99992 8.66573ZM7.33325 9.99906V11.3324H8.66659V9.99906H7.33325Z" fill="black"/>
</mask>
<g mask="url(#mask0)">
<rect y="-0.000976562" width="16" height="16" fill="#FF3131"/>
</g>
</svg>
