<svg width="25" height="24" viewBox="0 0 25 24" fill="none" xmlns="http://www.w3.org/2000/svg">
<path d="M18.5 3H6.5C5.70435 3 4.94129 3.31607 4.37868 3.87868C3.81607 4.44129 3.5 5.20435 3.5 6V18C3.5 18.7956 3.81607 19.5587 4.37868 20.1213C4.94129 20.6839 5.70435 21 6.5 21H18.5C19.2956 21 20.0587 20.6839 20.6213 20.1213C21.1839 19.5587 21.5 18.7956 21.5 18V6C21.5 5.20435 21.1839 4.44129 20.6213 3.87868C20.0587 3.31607 19.2956 3 18.5 3ZM6.5 5H18.5C18.7652 5 19.0196 5.10536 19.2071 5.29289C19.3946 5.48043 19.5 5.73478 19.5 6V14.36L16.3 11.63C15.8042 11.222 15.1821 10.999 14.54 10.999C13.8979 10.999 13.2758 11.222 12.78 11.63L5.5 17.7V6C5.5 5.73478 5.60536 5.48043 5.79289 5.29289C5.98043 5.10536 6.23478 5 6.5 5ZM18.5 19H7.06L14.06 13.16C14.1945 13.0602 14.3575 13.0062 14.525 13.0062C14.6925 13.0062 14.8555 13.0602 14.99 13.16L19.5 17V18C19.5 18.2652 19.3946 18.5196 19.2071 18.7071C19.0196 18.8946 18.7652 19 18.5 19Z" fill="#BDBDBD"/>
<path d="M8.5 10C9.32843 10 10 9.32843 10 8.5C10 7.67157 9.32843 7 8.5 7C7.67157 7 7 7.67157 7 8.5C7 9.32843 7.67157 10 8.5 10Z" fill="#BDBDBD"/>
</svg>
